<?xml version="1.0"?>
<svg xmlns="http://www.w3.org/2000/svg" xmlns:xlink="http://www.w3.org/1999/xlink" xmlns:svgjs="http://svgjs.com/svgjs" version="1.1" width="512" height="512" x="0" y="0" viewBox="0 0 459 459" style="enable-background:new 0 0 512 512" xml:space="preserve" class=""><g>
<g xmlns="http://www.w3.org/2000/svg">
	<g id="high-quality">
		<path d="M408,25.5H51c-28.05,0-51,22.95-51,51v306c0,28.05,22.95,51,51,51h357c28.05,0,51-22.95,51-51v-306    C459,48.45,436.05,25.5,408,25.5z M204,306h-38.25v-51h-51v51H76.5V153h38.25v63.75h51V153H204V306z M382.5,280.5    c0,15.3-10.2,25.5-25.5,25.5h-20.4v38.25h-38.25V306H280.5c-15.3,0-25.5-10.2-25.5-25.5v-102c0-15.3,10.2-25.5,25.5-25.5H357    c15.3,0,25.5,10.2,25.5,25.5V280.5z M293.25,267.75h51v-76.5h-51V267.75z" fill="#474f5e" data-original="#000000" style="" class=""/>
	</g>
</g>
<g xmlns="http://www.w3.org/2000/svg">
</g>
<g xmlns="http://www.w3.org/2000/svg">
</g>
<g xmlns="http://www.w3.org/2000/svg">
</g>
<g xmlns="http://www.w3.org/2000/svg">
</g>
<g xmlns="http://www.w3.org/2000/svg">
</g>
<g xmlns="http://www.w3.org/2000/svg">
</g>
<g xmlns="http://www.w3.org/2000/svg">
</g>
<g xmlns="http://www.w3.org/2000/svg">
</g>
<g xmlns="http://www.w3.org/2000/svg">
</g>
<g xmlns="http://www.w3.org/2000/svg">
</g>
<g xmlns="http://www.w3.org/2000/svg">
</g>
<g xmlns="http://www.w3.org/2000/svg">
</g>
<g xmlns="http://www.w3.org/2000/svg">
</g>
<g xmlns="http://www.w3.org/2000/svg">
</g>
<g xmlns="http://www.w3.org/2000/svg">
</g>
</g></svg>
